# xmcd
#
# Track frame offsets:
# 150
# 69051
# 109028
# 188759
#
# Disc length: 3249 seconds
#
# Revision: 0
# Processed by: cddbd v1.5.1PL0 Copyright (c) Steve Scherf et al.
# Submitted via: Audion 3.0.2 (http://www.panic.com/audion/)
#
DISCID=280caf04
DTITLE=E.G. White/Eric Martin - Ministry of Healing
DYEAR=1900
DGENRE=
TTITLE0=Ministry to the Rich
TTITLE1=In the Sickroom
TTITLE2=Prayer for the Sick
TTITLE3=The Use of Remedies
EXTD=
EXTT0=
EXTT1=
EXTT2=
EXTT3=
PLAYORDER=
